<svg width="176" height="48" viewBox="0 0 176 48" fill="none" xmlns="http://www.w3.org/2000/svg">
<path d="M65.25 23.7969V23.2812C66.2917 23.1667 67.1823 22.9583 67.9219 22.6562C68.6615 22.3542 69.2708 21.9688 69.75 21.5C70.2292 21.0312 70.5781 20.4792 70.7969 19.8438C71.026 19.2083 71.1406 18.5 71.1406 17.7188C71.1094 17.0938 71.0156 16.5677 70.8594 16.1406C70.7135 15.7135 70.4635 15.3698 70.1094 15.1094C69.7552 14.8385 69.2812 14.6458 68.6875 14.5312C68.1042 14.4062 67.3594 14.3438 66.4531 14.3438C66.1198 14.3438 65.7656 14.3542 65.3906 14.375C65.026 14.3854 64.6302 14.401 64.2031 14.4219C64.2656 14.6719 64.2969 14.9375 64.2969 15.2188V33.1406C64.2969 33.5677 64.3333 33.9323 64.4062 34.2344C64.4896 34.5365 64.625 34.7917 64.8125 35C65 35.2083 65.25 35.3802 65.5625 35.5156C65.8854 35.6406 66.2865 35.7448 66.7656 35.8281L66.625 36.2031C65.9896 36.1198 65.4427 36.0573 64.9844 36.0156C64.526 35.974 64.1458 35.9531 63.8438 35.9531C63.5625 35.9531 63.2396 35.974 62.875 36.0156C62.5104 36.0573 62.1094 36.1198 61.6719 36.2031L61.5781 36.0469C61.7865 35.7448 61.8906 35.1927 61.8906 34.3906V17.9688C61.8906 17.2812 61.8594 16.7083 61.7969 16.25C61.7344 15.7812 61.6198 15.4062 61.4531 15.125C61.2865 14.8438 61.0521 14.6458 60.75 14.5312C60.4479 14.4062 59.9115 14.349 59.1406 14.3594L59.0781 13.9062C59.776 13.8125 60.3906 13.7292 60.9219 13.6562C61.4635 13.5833 61.974 13.5208 62.4531 13.4688C62.9427 13.4062 63.4219 13.3542 63.8906 13.3125C64.3698 13.2708 64.8281 13.2396 65.2656 13.2188C65.7031 13.1875 66.0521 13.1667 66.3125 13.1562C66.5833 13.1458 66.8385 13.1406 67.0781 13.1406C68.026 13.1406 68.901 13.2135 69.7031 13.3594C70.5156 13.4948 71.2135 13.7396 71.7969 14.0938C72.3906 14.4375 72.849 14.9062 73.1719 15.5C73.5052 16.0938 73.6719 16.8438 73.6719 17.75C73.6719 18.4271 73.5208 19.0677 73.2188 19.6719C72.9271 20.276 72.526 20.8281 72.0156 21.3281C71.5156 21.8281 70.9271 22.2708 70.25 22.6562C69.5833 23.0312 68.8698 23.3333 68.1094 23.5625V23.7344L74.4688 32.8125C75.0208 33.6146 75.7344 34.2344 76.6094 34.6719C77.4635 35.0365 77.9792 35.25 78.1562 35.3125C78.3438 35.375 78.5573 35.4479 78.7969 35.5312V35.8281C76.9531 35.8281 75.4062 36.0208 74.1562 36.4062L73.9219 36.2656C73.9219 36.1198 73.8333 35.9062 73.6562 35.625C73.4792 35.3333 73.2604 35.0104 73 34.6562C72.75 34.2917 72.2969 33.6406 71.6406 32.7031C70.9844 31.7552 68.8542 28.7865 65.25 23.7969Z" fill="white"/>
<path d="M92.75 34.1875C92.75 34.3646 92.7865 34.5312 92.8594 34.6875C92.9427 34.8333 93.0365 34.9583 93.1406 35.0625C93.2552 35.1562 93.4167 35.25 93.625 35.3438C93.8333 35.4375 94.0156 35.5104 94.1719 35.5625C94.3281 35.6146 94.5469 35.6823 94.8281 35.7656L94.7031 36.1406C94.0365 36.0156 93.375 35.9531 92.7188 35.9531C91.8958 35.9531 91.0833 36.0365 90.2812 36.2031L90.1875 36.0469C90.4062 35.7448 90.5156 35.1927 90.5156 34.3906V33.3594C89.9948 34.3281 89.1823 35.1094 88.0781 35.7031C86.9844 36.2969 85.875 36.5938 84.75 36.5938C83.5521 36.5938 82.5833 36.2865 81.8438 35.6719C81.1146 35.0469 80.75 34.125 80.75 32.9062C80.75 32.1146 80.9115 31.4115 81.2344 30.7969C81.5677 30.1719 82.0052 29.6458 82.5469 29.2188C83.099 28.7812 83.8021 28.3958 84.6562 28.0625C85.5208 27.7292 86.4062 27.4583 87.3125 27.25C88.2292 27.0417 89.2969 26.849 90.5156 26.6719V25.2344C90.5156 22.3698 89.3854 20.9375 87.125 20.9375C86.3958 20.9375 85.5 21.1198 84.4375 21.4844C83.3854 21.8385 82.5 22.3073 81.7812 22.8906L81.1406 22.1562C82.0469 21.4375 83.1198 20.8438 84.3594 20.375C85.6094 19.9062 86.776 19.6719 87.8594 19.6719C88.3385 19.6719 88.7917 19.7188 89.2188 19.8125C89.6562 19.8958 90.0938 20.0573 90.5312 20.2969C90.9792 20.526 91.3594 20.8229 91.6719 21.1875C91.9948 21.5417 92.2552 22.0208 92.4531 22.625C92.651 23.2188 92.75 23.8958 92.75 24.6562V34.1875ZM85.4844 35.4062C86.3906 35.4062 87.3385 35.1094 88.3281 34.5156C89.3177 33.9115 90.0469 33.1615 90.5156 32.2656V27.5C87.849 27.8854 85.9427 28.4792 84.7969 29.2812C83.6615 30.0729 83.0938 31.2292 83.0938 32.75C83.0938 33.6771 83.2917 34.3542 83.6875 34.7812C84.0833 35.1979 84.6823 35.4062 85.4844 35.4062Z" fill="white"/>
<path d="M99.8906 24.375C99.8906 22.8958 99.7135 21.9062 99.3594 21.4062C99.0156 20.8958 98.276 20.6771 97.1406 20.75L97.0781 20.4688C98.7969 19.9583 100.375 19.7031 101.812 19.7031C102.031 20.2448 102.141 20.8385 102.141 21.4844V33.1406C102.141 33.9635 102.333 34.5729 102.719 34.9688C103.104 35.3646 103.786 35.651 104.766 35.8281L104.641 36.2031C103.443 36.0365 102.516 35.9531 101.859 35.9531C101.214 35.9531 100.484 36.0365 99.6719 36.2031L99.5781 36.0469C99.7865 35.7448 99.8906 35.1927 99.8906 34.3906V24.375ZM98.2969 13.9062C99.2865 13.3333 100.406 12.8542 101.656 12.4688C101.656 13.3333 101.797 14.1875 102.078 15.0312L101.875 15.3125C100.885 15.375 99.8542 15.651 98.7812 16.1406C98.5208 15.4219 98.3594 14.6771 98.2969 13.9062Z" fill="white"/>
<path d="M111.422 33.1406C111.422 33.9635 111.615 34.5729 112 34.9688C112.385 35.3646 113.068 35.651 114.047 35.8281L113.922 36.2031C112.724 36.0365 111.797 35.9531 111.141 35.9531C110.495 35.9531 109.766 36.0365 108.953 36.2031L108.859 36.0469C109.068 35.7448 109.172 35.1927 109.172 34.3906V15.6719C109.172 14.1927 108.995 13.2031 108.641 12.7031C108.297 12.1927 107.557 11.974 106.422 12.0469L106.359 11.7656C108.078 11.2552 109.656 11 111.094 11C111.312 11.5417 111.422 12.1354 111.422 12.7812V33.1406Z" fill="white"/>
<path d="M121.016 22.3906C121.932 21.4531 122.854 20.7708 123.781 20.3438C124.708 19.9167 125.729 19.7031 126.844 19.7031C127.781 19.7031 128.641 19.9219 129.422 20.3594C130.214 20.7865 130.865 21.3542 131.375 22.0625C131.885 22.7708 132.281 23.5729 132.562 24.4688C132.844 25.3542 132.984 26.2708 132.984 27.2188C132.984 30.0104 132.245 32.2188 130.766 33.8438C129.297 35.4583 127.167 36.2656 124.375 36.2656C123.26 36.2656 122.172 36.1719 121.109 35.9844H121.078C120.047 35.9844 119.214 36.0938 118.578 36.3125L118.453 36.0469C118.589 35.849 118.672 35.6302 118.703 35.3906C118.745 35.1406 118.766 34.6979 118.766 34.0625V15.6719C118.766 14.2969 118.615 13.349 118.312 12.8281C118.021 12.3073 117.406 12.0469 116.469 12.0469H116.016L115.953 11.7656C117.672 11.2552 119.25 11 120.688 11C120.906 11.5417 121.016 12.1354 121.016 12.7812V22.3906ZM121.016 23.6406V34.1562C121.516 34.4271 122.177 34.651 123 34.8281C123.833 35.0052 124.667 35.0938 125.5 35.0938C126.312 35.0938 127.016 34.9844 127.609 34.7656C128.214 34.5365 128.698 34.2344 129.062 33.8594C129.427 33.474 129.719 32.974 129.938 32.3594C130.167 31.7448 130.318 31.099 130.391 30.4219C130.474 29.7448 130.516 28.9531 130.516 28.0469C130.516 25.6719 130.115 23.875 129.312 22.6562C128.51 21.4271 127.448 20.8125 126.125 20.8125C125.302 20.8125 124.443 21.0573 123.547 21.5469C122.661 22.026 121.818 22.724 121.016 23.6406Z" fill="white"/>
<path d="M138.203 24.375C138.203 22.8958 138.026 21.9062 137.672 21.4062C137.328 20.8958 136.589 20.6771 135.453 20.75L135.391 20.4688C137.109 19.9583 138.688 19.7031 140.125 19.7031C140.344 20.2448 140.453 20.8385 140.453 21.4844V33.1406C140.453 33.9635 140.646 34.5729 141.031 34.9688C141.417 35.3646 142.099 35.651 143.078 35.8281L142.953 36.2031C141.755 36.0365 140.828 35.9531 140.172 35.9531C139.526 35.9531 138.797 36.0365 137.984 36.2031L137.891 36.0469C138.099 35.7448 138.203 35.1927 138.203 34.3906V24.375ZM136.609 13.9062C137.599 13.3333 138.719 12.8542 139.969 12.4688C139.969 13.3333 140.109 14.1875 140.391 15.0312L140.188 15.3125C139.198 15.375 138.167 15.651 137.094 16.1406C136.833 15.4219 136.672 14.6771 136.609 13.9062Z" fill="white"/>
<path d="M147.484 24.375C147.484 23.6771 147.448 23.0938 147.375 22.625C147.312 22.1562 147.193 21.7812 147.016 21.5C146.849 21.2188 146.615 21.0208 146.312 20.9062C146.01 20.7917 145.484 20.7396 144.734 20.75L144.672 20.4688C146.37 19.9583 147.948 19.7031 149.406 19.7031C149.625 20.2552 149.734 20.849 149.734 21.4844V23.4062L149.797 23.4688C150.234 22.8646 150.651 22.3281 151.047 21.8594C151.453 21.3906 151.865 21 152.281 20.6875C152.698 20.375 153.135 20.1406 153.594 19.9844C154.052 19.8177 154.562 19.7344 155.125 19.7344C155.479 19.7344 155.87 19.7656 156.297 19.8281L155.391 23.6406L154.812 23.4688C154.812 23.3125 154.802 23.099 154.781 22.8281C154.76 22.5573 154.729 22.2917 154.688 22.0312C154.656 21.7604 154.609 21.5312 154.547 21.3438C154.495 21.1458 154.432 21.0469 154.359 21.0469C154.057 21.0469 153.75 21.1146 153.438 21.25C153.135 21.375 152.802 21.5833 152.438 21.875C152.073 22.1667 151.672 22.5469 151.234 23.0156C150.797 23.4844 150.297 24.0521 149.734 24.7188V33.8125C149.734 34.1458 149.76 34.4167 149.812 34.625C149.865 34.8229 149.974 34.9896 150.141 35.125C150.307 35.2604 150.542 35.3802 150.844 35.4844C151.146 35.5885 151.542 35.7031 152.031 35.8281L151.906 36.2031C151.302 36.1198 150.786 36.0573 150.359 36.0156C149.943 35.974 149.604 35.9531 149.344 35.9531C148.75 35.9531 148.057 36.0365 147.266 36.2031L147.172 36.0469C147.38 35.7448 147.484 35.1927 147.484 34.3906V24.375Z" fill="white"/>
<path d="M170.156 15.6719C170.156 14.9635 170.125 14.401 170.062 13.9844C170 13.5677 169.87 13.2031 169.672 12.8906C169.484 12.5781 169.208 12.3594 168.844 12.2344C168.479 12.1094 168 12.0469 167.406 12.0469L167.344 11.7656C169.062 11.2552 170.641 11 172.078 11C172.286 11.5521 172.391 12.1458 172.391 12.7812V33.1406C172.391 33.9635 172.583 34.5729 172.969 34.9688C173.354 35.3646 174.036 35.651 175.016 35.8281L174.891 36.2031C173.693 36.0365 172.734 35.9531 172.016 35.9531C171.453 35.9531 170.755 36.0365 169.922 36.2031L169.828 36.0469C170.047 35.7448 170.156 35.1927 170.156 34.3906V34.25C168.625 35.8125 167.026 36.5938 165.359 36.5938C164.474 36.5938 163.62 36.4062 162.797 36.0312C161.984 35.6562 161.26 35.1406 160.625 34.4844C159.99 33.8177 159.479 32.9896 159.094 32C158.719 31 158.531 29.9167 158.531 28.75C158.531 25.9583 159.266 23.7552 160.734 22.1406C162.214 20.5156 164.349 19.7031 167.141 19.7031C168.016 19.7031 169.021 19.7865 170.156 19.9531V15.6719ZM170.156 21.6875C168.969 21.1458 167.583 20.875 166 20.875C165.188 20.875 164.484 20.9896 163.891 21.2188C163.297 21.4375 162.812 21.7396 162.438 22.125C162.073 22.5104 161.781 23.0104 161.562 23.625C161.344 24.2292 161.193 24.8698 161.109 25.5469C161.036 26.224 161 27.0156 161 27.9219C161 30.3073 161.443 32.125 162.328 33.375C163.214 34.625 164.359 35.25 165.766 35.25C167.297 35.25 168.76 34.5365 170.156 33.1094V21.6875Z" fill="white"/>
<rect x="26.0454" y="11.7476" width="0.691033" height="27.7559" transform="rotate(16.9213 26.0454 11.7476)" fill="#D9D9D9"/>
<path d="M4.74266 22.3537L15.9248 30.4736L11.3126 34.5114L4.74266 22.3537Z" fill="#22CC44"/>
<circle cx="18.5625" cy="38.2672" r="6.2193" transform="rotate(-41.2005 18.5625 38.2672)" fill="#4A9EFF"/>
<path d="M37.8389 26.8399L28.5089 16.6455L33.8362 13.6129L37.8389 26.8399Z" fill="#22CC44"/>
<circle cx="27.4851" cy="8.48173" r="6.2193" transform="rotate(150.349 27.4851 8.48173)" fill="#FFAA00"/>
</svg>
