<svg width="94" height="36" viewBox="0 0 94 36" fill="none" xmlns="http://www.w3.org/2000/svg">
<path d="M1.99482 25.0829C3.18415 25.6986 4.35726 26.0064 5.51415 26.0064C6.21693 26.0064 6.86565 25.902 7.46032 25.6931C8.06579 25.4732 8.58477 25.1489 9.01725 24.7201C9.46055 24.2913 9.80653 23.7636 10.0552 23.137C10.3039 22.4993 10.4282 21.7627 10.4282 20.9272C10.4282 20.3005 10.3634 19.7563 10.2336 19.2945C10.1039 18.8218 9.85519 18.3656 9.48758 17.9258C9.11997 17.475 8.6064 16.9968 7.94686 16.4911C7.28732 15.9853 6.42236 15.3807 5.35197 14.677C3.64366 13.5447 2.39487 12.4563 1.60559 11.4118C0.827122 10.3674 0.437888 9.30646 0.437888 8.22904C0.437888 7.17361 0.654129 6.25011 1.08661 5.45854C1.51909 4.65598 2.08673 3.99084 2.78951 3.46312C3.50311 2.92442 4.3032 2.52313 5.18979 2.25928C6.08719 1.98443 6.9954 1.847 7.91442 1.847C9.56867 1.847 11.0499 2.23179 12.3582 3.00137C12.0554 4.70545 11.5256 6.36006 10.7688 7.96519L10.3309 7.73431C10.3958 7.31654 10.4444 6.92075 10.4769 6.54695C10.5201 6.16216 10.5418 5.80486 10.5418 5.47503C10.5418 5.13422 10.5255 4.82639 10.4931 4.55153C10.4607 4.26569 10.4174 3.99634 10.3634 3.74347C9.49839 3.22675 8.56855 2.96839 7.57384 2.96839C6.94674 2.96839 6.34668 3.06734 5.77364 3.26523C5.21141 3.45213 4.71406 3.73248 4.28157 4.10628C3.84909 4.48007 3.50311 4.94182 3.24362 5.49153C2.98413 6.03023 2.85438 6.6514 2.85438 7.35502C2.85438 7.84975 2.94088 8.3115 3.11387 8.74027C3.28686 9.16903 3.55176 9.5978 3.90856 10.0266C4.27617 10.4553 4.73027 10.9006 5.27088 11.3623C5.82229 11.8241 6.47101 12.3353 7.21705 12.896C7.66034 13.2258 8.0766 13.5282 8.46584 13.803C8.85507 14.0669 9.21728 14.3197 9.55245 14.5616C9.88762 14.8035 10.1958 15.0399 10.4769 15.2707C10.7688 15.5016 11.0391 15.749 11.2878 16.0128C12.4879 17.2991 13.088 18.7943 13.088 20.4984C13.088 21.6418 12.888 22.6257 12.4879 23.4503C12.0987 24.2749 11.5635 24.951 10.8823 25.4787C10.2012 26.0064 9.40649 26.3912 8.49827 26.6331C7.59006 26.8859 6.62779 27.0124 5.61146 27.0124C3.78422 27.0124 1.91373 26.6386 0 25.891C0.335174 24.1209 0.864964 22.4663 1.58937 20.9272L2.02726 21.1745C1.89752 21.7902 1.83264 22.5433 1.83264 23.4338C1.83264 24.3243 1.8867 24.874 1.99482 25.0829Z" fill="white"/>
<path d="M21.9755 32.7513C21.9755 33.6308 22.1755 34.2739 22.5756 34.6807C22.9756 35.0985 23.6838 35.4008 24.7001 35.5877L24.5704 36C23.3703 35.8131 22.3701 35.7197 21.57 35.7197C20.9538 35.7197 20.2348 35.8131 19.413 36L19.3157 35.8186C19.532 35.4998 19.6401 34.9171 19.6401 34.0705V14.1164C19.6401 12.5552 19.4563 11.5108 19.0887 10.9831C18.7319 10.4443 17.9642 10.2135 16.7857 10.2904L16.7208 9.99359C18.5048 9.45488 20.1429 9.18552 21.6349 9.18552C21.862 9.75721 21.9755 10.3839 21.9755 11.0655V12.022C22.927 11.0325 23.8838 10.3124 24.8461 9.86166C25.8084 9.4109 26.868 9.18552 28.0248 9.18552C28.9979 9.18552 29.8899 9.4164 30.7008 9.87815C31.5225 10.3289 32.1983 10.9281 32.7281 11.6757C33.2579 12.4233 33.6687 13.2698 33.9607 14.2153C34.2526 15.1498 34.3986 16.1173 34.3986 17.1177C34.3986 20.0861 33.6255 22.4773 32.0794 24.2913C30.5441 26.1054 28.3384 27.0124 25.4624 27.0124C24.1541 27.0124 22.9918 26.8969 21.9755 26.6661V32.7513ZM21.9755 13.3413V24.7861C22.4837 25.0719 23.1702 25.3083 24.0352 25.4952C24.9002 25.6711 25.7651 25.759 26.6301 25.759C27.4734 25.759 28.2032 25.6326 28.8195 25.3798C29.4466 25.1159 29.9494 24.7696 30.3278 24.3408C30.7062 23.9011 31.009 23.3404 31.236 22.6587C31.4739 21.9771 31.6307 21.2735 31.7063 20.5479C31.7928 19.8113 31.8361 18.9592 31.8361 17.9918C31.8361 15.4851 31.4198 13.5886 30.5873 12.3023C29.7548 11.005 28.6519 10.3564 27.2788 10.3564C26.4247 10.3564 25.5327 10.6148 24.6028 11.1315C23.6838 11.6372 22.808 12.3738 21.9755 13.3413Z" fill="white"/>
<path d="M42.1508 23.3678C42.1508 24.2364 42.3508 24.8795 42.7509 25.2973C43.1509 25.7151 43.8591 26.0174 44.8754 26.2043L44.7457 26.6001C43.5023 26.4242 42.54 26.3362 41.8589 26.3362C41.1885 26.3362 40.4317 26.4242 39.5883 26.6001L39.491 26.4352C39.7073 26.1164 39.8154 25.5337 39.8154 24.6871V4.93083C39.8154 3.36967 39.6316 2.32524 39.264 1.79753C38.9072 1.25882 38.1395 1.02794 36.961 1.1049L36.8961 0.808062C38.6801 0.269354 40.3182 0 41.8102 0C42.0373 0.57169 42.1508 1.19835 42.1508 1.87998V23.3678Z" fill="white"/>
<path d="M59.9745 24.4727C59.9745 24.6596 60.0123 24.8355 60.088 25.0005C60.1745 25.1544 60.2718 25.2863 60.3799 25.3962C60.4989 25.4952 60.6664 25.5941 60.8827 25.6931C61.0989 25.792 61.2881 25.869 61.4503 25.924C61.6125 25.9789 61.8395 26.0504 62.1315 26.1383L62.0017 26.5341C61.3098 26.4022 60.6232 26.3362 59.942 26.3362C59.0879 26.3362 58.2445 26.4242 57.412 26.6001L57.3147 26.4352C57.5418 26.1164 57.6553 25.5337 57.6553 24.6871V23.5987C57.1147 24.6212 56.2713 25.4457 55.1253 26.0724C53.99 26.699 52.8385 27.0124 51.6708 27.0124C50.4274 27.0124 49.4219 26.688 48.6542 26.0394C47.8974 25.3798 47.519 24.4068 47.519 23.1205C47.519 22.2849 47.6866 21.5428 48.0217 20.8942C48.3677 20.2345 48.8218 19.6793 49.3841 19.2286C49.9571 18.7668 50.6869 18.3601 51.5735 18.0082C52.4709 17.6564 53.3899 17.3706 54.3306 17.1507C55.282 16.9308 56.3903 16.7274 57.6553 16.5405V15.0234C57.6553 12 56.4822 10.4883 54.136 10.4883C53.3791 10.4883 52.4493 10.6807 51.3464 11.0655C50.2544 11.4393 49.3354 11.934 48.5894 12.5497L47.9244 11.7746C48.8651 11.016 49.9787 10.3894 51.2654 9.89464C52.5628 9.39991 53.7738 9.15254 54.8982 9.15254C55.3956 9.15254 55.8659 9.20202 56.3092 9.30096C56.7633 9.38891 57.2174 9.55932 57.6715 9.81219C58.1364 10.0541 58.5311 10.3674 58.8554 10.7522C59.1906 11.126 59.4609 11.6317 59.6663 12.2694C59.8718 12.896 59.9745 13.6106 59.9745 14.4132V24.4727ZM52.4331 25.759C53.3737 25.759 54.3576 25.4457 55.3847 24.8191C56.4119 24.1814 57.1687 23.3898 57.6553 22.4443V17.4146C54.8874 17.8213 52.9088 18.448 51.7195 19.2945C50.5409 20.1301 49.9517 21.3504 49.9517 22.9556C49.9517 23.934 50.1571 24.6486 50.568 25.0994C50.9788 25.5392 51.6005 25.759 52.4331 25.759Z" fill="white"/>
<path d="M69.8837 21.7847C69.8837 23.2799 70.0459 24.3133 70.3703 24.885C70.6946 25.4457 71.219 25.7261 71.9434 25.7261C72.7327 25.7261 73.695 25.4237 74.8302 24.8191L75.333 25.5282C73.549 26.5176 72.0894 27.0124 70.9541 27.0124C70.3486 27.0124 69.8567 26.9574 69.4783 26.8475C69.0998 26.7375 68.7539 26.5231 68.4403 26.2043C68.1268 25.8855 67.8997 25.4182 67.7591 24.8026C67.6294 24.1759 67.5645 23.3678 67.5645 22.3784V11.1974L65.1318 11.3459V10.2904C65.986 10.1035 66.7969 9.98259 67.5645 9.92762V7.58589C68.4836 7.05818 69.235 6.30508 69.8188 5.32661L70.3216 5.52451C70.1378 5.96427 70.0189 6.4645 69.9648 7.02519C69.9107 7.5749 69.8837 8.50939 69.8837 9.82868H75.4627V10.4059C75.0086 10.5928 74.5491 10.7522 74.0842 10.8841C73.6193 11.005 73.1381 11.0655 72.6408 11.0655H69.8837V21.7847Z" fill="white"/>
<path d="M86.0207 9.18552C88.5075 9.18552 90.4591 9.9606 91.8754 11.5108C93.2918 13.0609 94 15.2213 94 17.9918C94 19.5969 93.6378 21.0921 92.9134 22.4773C92.189 23.8626 91.2051 24.9675 89.9617 25.792C88.7183 26.6056 87.3722 27.0124 85.9234 27.0124C83.4258 27.0124 81.4688 26.2483 80.0525 24.7201C78.6469 23.1809 77.9441 21.0041 77.9441 18.1896C77.9441 16.5186 78.3063 14.9959 79.0307 13.6216C79.7551 12.2364 80.7336 11.1535 81.9662 10.3729C83.2096 9.58131 84.5611 9.18552 86.0207 9.18552ZM85.6963 10.3234C84.8422 10.3234 84.1016 10.4498 83.4745 10.7027C82.8474 10.9556 82.3446 11.2964 81.9662 11.7251C81.5878 12.1539 81.285 12.6981 81.058 13.3578C80.8309 14.0174 80.6741 14.6935 80.5876 15.3862C80.512 16.0788 80.4741 16.8814 80.4741 17.7939C80.4741 19.2451 80.6417 20.5149 80.9769 21.6033C81.3229 22.6807 81.7824 23.5218 82.3554 24.1264C82.9285 24.7201 83.5393 25.1599 84.1881 25.4457C84.8368 25.7206 85.5234 25.858 86.2478 25.858C87.0911 25.858 87.8263 25.7261 88.4534 25.4622C89.0913 25.1874 89.5995 24.8355 89.9779 24.4068C90.3563 23.967 90.6591 23.4173 90.8861 22.7577C91.1132 22.087 91.2646 21.4109 91.3402 20.7293C91.4267 20.0476 91.47 19.2726 91.47 18.404C91.47 17.1837 91.3565 16.0953 91.1294 15.1388C90.9023 14.1823 90.5996 13.4072 90.2212 12.8136C89.8536 12.2199 89.4103 11.7306 88.8913 11.3459C88.3831 10.9611 87.8696 10.6972 87.3506 10.5543C86.8316 10.4004 86.2802 10.3234 85.6963 10.3234Z" fill="white"/>
</svg>
