<svg width="151" height="48" viewBox="0 0 151 48" fill="none" xmlns="http://www.w3.org/2000/svg">
<path d="M58.7136 35.0829C59.9029 35.6986 61.076 36.0064 62.2329 36.0064C62.9357 36.0064 63.5844 35.902 64.1791 35.6931C64.7845 35.4732 65.3035 35.1489 65.736 34.7201C66.1793 34.2913 66.5253 33.7636 66.774 33.137C67.0226 32.4993 67.147 31.7627 67.147 30.9272C67.147 30.3005 67.0821 29.7563 66.9524 29.2945C66.8226 28.8218 66.5739 28.3656 66.2063 27.9258C65.8387 27.475 65.3251 26.9968 64.6656 26.4911C64.0061 25.9853 63.1411 25.3807 62.0707 24.677C60.3624 23.5447 59.1136 22.4563 58.3243 21.4118C57.5459 20.3674 57.1566 19.3065 57.1566 18.229C57.1566 17.1736 57.3729 16.2501 57.8054 15.4585C58.2378 14.656 58.8055 13.9908 59.5083 13.4631C60.2219 12.9244 61.0219 12.5231 61.9085 12.2593C62.8059 11.9844 63.7141 11.847 64.6332 11.847C66.2874 11.847 67.7687 12.2318 69.0769 13.0014C68.7742 14.7055 68.2444 16.3601 67.4876 17.9652L67.0497 17.7343C67.1145 17.3165 67.1632 16.9208 67.1956 16.547C67.2389 16.1622 67.2605 15.8049 67.2605 15.475C67.2605 15.1342 67.2443 14.8264 67.2118 14.5515C67.1794 14.2657 67.1362 13.9963 67.0821 13.7435C66.2171 13.2268 65.2873 12.9684 64.2926 12.9684C63.6655 12.9684 63.0654 13.0673 62.4924 13.2652C61.9302 13.4521 61.4328 13.7325 61.0003 14.1063C60.5678 14.4801 60.2219 14.9418 59.9624 15.4915C59.7029 16.0302 59.5731 16.6514 59.5731 17.355C59.5731 17.8497 59.6596 18.3115 59.8326 18.7403C60.0056 19.169 60.2705 19.5978 60.6273 20.0266C60.9949 20.4553 61.449 20.9006 61.9896 21.3623C62.541 21.8241 63.1898 22.3353 63.9358 22.896C64.3791 23.2258 64.7954 23.5282 65.1846 23.803C65.5738 24.0669 65.936 24.3197 66.2712 24.5616C66.6064 24.8035 66.9145 25.0399 67.1956 25.2707C67.4876 25.5016 67.7579 25.749 68.0065 26.0128C69.2067 27.2991 69.8067 28.7943 69.8067 30.4984C69.8067 31.6418 69.6067 32.6257 69.2067 33.4503C68.8174 34.2749 68.2822 34.951 67.6011 35.4787C66.9199 36.0064 66.1252 36.3912 65.217 36.6331C64.3088 36.8859 63.3465 37.0124 62.3302 37.0124C60.503 37.0124 58.6325 36.6386 56.7188 35.891C57.0539 34.1209 57.5837 32.4663 58.3081 30.9272L58.746 31.1745C58.6163 31.7902 58.5514 32.5433 58.5514 33.4338C58.5514 34.3243 58.6055 34.874 58.7136 35.0829Z" fill="white"/>
<path d="M78.6943 42.7513C78.6943 43.6308 78.8943 44.2739 79.2943 44.6807C79.6944 45.0985 80.4026 45.4008 81.4189 45.5877L81.2891 46C80.089 45.8131 79.0889 45.7197 78.2888 45.7197C77.6725 45.7197 76.9535 45.8131 76.1318 46L76.0345 45.8186C76.2507 45.4998 76.3588 44.9171 76.3588 44.0705V24.1164C76.3588 22.5552 76.175 21.5108 75.8074 20.9831C75.4506 20.4443 74.683 20.2135 73.5045 20.2904L73.4396 19.9936C75.2236 19.4549 76.8616 19.1855 78.3537 19.1855C78.5807 19.7572 78.6943 20.3839 78.6943 21.0655V22.022C79.6457 21.0325 80.6026 20.3124 81.5649 19.8617C82.5271 19.4109 83.5867 19.1855 84.7436 19.1855C85.7167 19.1855 86.6087 19.4164 87.4196 19.8781C88.2413 20.3289 88.917 20.9281 89.4468 21.6757C89.9766 22.4233 90.3875 23.2698 90.6794 24.2153C90.9713 25.1498 91.1173 26.1173 91.1173 27.1177C91.1173 30.0861 90.3442 32.4773 88.7981 34.2913C87.2628 36.1054 85.0571 37.0124 82.1811 37.0124C80.8729 37.0124 79.7106 36.8969 78.6943 36.6661V42.7513ZM78.6943 23.3413V34.7861C79.2024 35.0719 79.889 35.3083 80.7539 35.4952C81.6189 35.6711 82.4839 35.759 83.3488 35.759C84.1922 35.759 84.922 35.6326 85.5383 35.3798C86.1654 35.1159 86.6681 34.7696 87.0466 34.3408C87.425 33.9011 87.7277 33.3404 87.9548 32.6587C88.1926 31.9771 88.3494 31.2735 88.4251 30.5479C88.5116 29.8113 88.5548 28.9592 88.5548 27.9918C88.5548 25.4851 88.1386 23.5886 87.3061 22.3023C86.4735 21.005 85.3707 20.3564 83.9976 20.3564C83.1434 20.3564 82.2514 20.6148 81.3216 21.1315C80.4026 21.6372 79.5268 22.3738 78.6943 23.3413Z" fill="white"/>
<path d="M98.8695 33.3678C98.8695 34.2364 99.0696 34.8795 99.4696 35.2973C99.8697 35.7151 100.578 36.0174 101.594 36.2043L101.464 36.6001C100.221 36.4242 99.2588 36.3362 98.5776 36.3362C97.9073 36.3362 97.1504 36.4242 96.3071 36.6001L96.2098 36.4352C96.426 36.1164 96.5341 35.5337 96.5341 34.6871V14.9308C96.5341 13.3697 96.3503 12.3252 95.9827 11.7975C95.6259 11.2588 94.8583 11.0279 93.6798 11.1049L93.6149 10.8081C95.3989 10.2694 97.0369 10 98.529 10C98.756 10.5717 98.8695 11.1984 98.8695 11.88V33.3678Z" fill="white"/>
<path d="M116.693 34.4727C116.693 34.6596 116.731 34.8355 116.807 35.0005C116.893 35.1544 116.991 35.2863 117.099 35.3962C117.218 35.4952 117.385 35.5941 117.601 35.6931C117.818 35.792 118.007 35.869 118.169 35.924C118.331 35.9789 118.558 36.0504 118.85 36.1383L118.72 36.5341C118.029 36.4022 117.342 36.3362 116.661 36.3362C115.807 36.3362 114.963 36.4242 114.131 36.6001L114.033 36.4352C114.261 36.1164 114.374 35.5337 114.374 34.6871V33.5987C113.833 34.6212 112.99 35.4457 111.844 36.0724C110.709 36.699 109.557 37.0124 108.39 37.0124C107.146 37.0124 106.141 36.688 105.373 36.0394C104.616 35.3798 104.238 34.4068 104.238 33.1205C104.238 32.2849 104.405 31.5428 104.74 30.8942C105.086 30.2345 105.541 29.6793 106.103 29.2286C106.676 28.7668 107.406 28.3601 108.292 28.0082C109.19 27.6564 110.109 27.3706 111.049 27.1507C112.001 26.9308 113.109 26.7274 114.374 26.5405V25.0234C114.374 22 113.201 20.4883 110.855 20.4883C110.098 20.4883 109.168 20.6807 108.065 21.0655C106.973 21.4393 106.054 21.934 105.308 22.5497L104.643 21.7746C105.584 21.016 106.697 20.3894 107.984 19.8946C109.282 19.3999 110.493 19.1525 111.617 19.1525C112.114 19.1525 112.585 19.202 113.028 19.301C113.482 19.3889 113.936 19.5593 114.39 19.8122C114.855 20.0541 115.25 20.3674 115.574 20.7522C115.909 21.126 116.18 21.6317 116.385 22.2694C116.591 22.896 116.693 23.6106 116.693 24.4132V34.4727ZM109.152 35.759C110.092 35.759 111.076 35.4457 112.103 34.8191C113.131 34.1814 113.887 33.3898 114.374 32.4443V27.4146C111.606 27.8213 109.628 28.448 108.438 29.2945C107.26 30.1301 106.67 31.3504 106.67 32.9556C106.67 33.934 106.876 34.6486 107.287 35.0994C107.698 35.5392 108.319 35.759 109.152 35.759Z" fill="white"/>
<path d="M126.602 31.7847C126.602 33.2799 126.765 34.3133 127.089 34.885C127.413 35.4457 127.938 35.7261 128.662 35.7261C129.451 35.7261 130.414 35.4237 131.549 34.8191L132.052 35.5282C130.268 36.5176 128.808 37.0124 127.673 37.0124C127.067 37.0124 126.575 36.9574 126.197 36.8475C125.819 36.7375 125.473 36.5231 125.159 36.2043C124.846 35.8855 124.618 35.4182 124.478 34.8026C124.348 34.1759 124.283 33.3678 124.283 32.3784V21.1974L121.851 21.3459V20.2904C122.705 20.1035 123.516 19.9826 124.283 19.9276V17.5859C125.202 17.0582 125.954 16.3051 126.538 15.3266L127.04 15.5245C126.857 15.9643 126.738 16.4645 126.684 17.0252C126.629 17.5749 126.602 18.5094 126.602 19.8287H132.181V20.4059C131.727 20.5928 131.268 20.7522 130.803 20.8841C130.338 21.005 129.857 21.0655 129.36 21.0655H126.602V31.7847Z" fill="white"/>
<path d="M142.739 19.1855C145.226 19.1855 147.178 19.9606 148.594 21.5108C150.011 23.0609 150.719 25.2213 150.719 27.9918C150.719 29.5969 150.357 31.0921 149.632 32.4773C148.908 33.8626 147.924 34.9675 146.68 35.792C145.437 36.6056 144.091 37.0124 142.642 37.0124C140.145 37.0124 138.188 36.2483 136.771 34.7201C135.366 33.1809 134.663 31.0041 134.663 28.1896C134.663 26.5186 135.025 24.9959 135.749 23.6216C136.474 22.2364 137.452 21.1535 138.685 20.3729C139.928 19.5813 141.28 19.1855 142.739 19.1855ZM142.415 20.3234C141.561 20.3234 140.82 20.4498 140.193 20.7027C139.566 20.9556 139.063 21.2964 138.685 21.7251C138.307 22.1539 138.004 22.6981 137.777 23.3578C137.55 24.0174 137.393 24.6935 137.306 25.3862C137.231 26.0788 137.193 26.8814 137.193 27.7939C137.193 29.2451 137.36 30.5149 137.696 31.6033C138.042 32.6807 138.501 33.5218 139.074 34.1264C139.647 34.7201 140.258 35.1599 140.907 35.4457C141.556 35.7206 142.242 35.858 142.967 35.858C143.81 35.858 144.545 35.7261 145.172 35.4622C145.81 35.1874 146.318 34.8355 146.697 34.4068C147.075 33.967 147.378 33.4173 147.605 32.7577C147.832 32.087 147.983 31.4109 148.059 30.7293C148.145 30.0476 148.189 29.2726 148.189 28.404C148.189 27.1837 148.075 26.0953 147.848 25.1388C147.621 24.1823 147.318 23.4072 146.94 22.8136C146.572 22.2199 146.129 21.7306 145.61 21.3459C145.102 20.9611 144.588 20.6972 144.069 20.5543C143.55 20.4004 142.999 20.3234 142.415 20.3234Z" fill="white"/>
<rect x="26.0454" y="11.7476" width="0.691033" height="27.7559" transform="rotate(16.9213 26.0454 11.7476)" fill="#D9D9D9"/>
<path d="M4.74266 22.3537L15.9248 30.4736L11.3126 34.5114L4.74266 22.3537Z" fill="#22CC44"/>
<circle cx="18.5625" cy="38.2672" r="6.2193" transform="rotate(-41.2005 18.5625 38.2672)" fill="#4A9EFF"/>
<path d="M37.8389 26.8399L28.509 16.6455L33.8363 13.6129L37.8389 26.8399Z" fill="#22CC44"/>
<circle cx="27.4851" cy="8.48173" r="6.2193" transform="rotate(150.349 27.4851 8.48173)" fill="#FFAA00"/>
</svg>
