<svg width="72" height="72" viewBox="0 0 72 72" fill="none" xmlns="http://www.w3.org/2000/svg">
<circle cx="36" cy="36" r="36" fill="black"/>
<path d="M37.0107 15C37.5383 25.6801 39.4224 48.7647 39.4224 48.7647L46.6577 51.1765L44.246 17.4118L37.0107 15Z" fill="#878787"/>
<path d="M15 29.4567C17.5671 28.4536 20.8947 28.4761 23.8159 28.9484C25.2903 29.1868 26.6945 29.5452 27.8909 29.9674C29.073 30.3846 30.1063 30.8825 30.8007 31.4251C31.4145 31.9048 32.0246 32.4414 32.6123 32.9581C33.2072 33.4811 33.7799 33.9844 34.3487 34.4289C35.5183 35.3429 36.5045 35.8695 37.3818 35.8695C37.8133 35.8695 38.2868 35.7426 38.9082 35.4952C39.2165 35.3725 39.5428 35.2273 39.91 35.0638C40.2731 34.9022 40.6721 34.7248 41.103 34.5466C42.8496 33.824 45.1283 33.0962 48.4204 33.0962C51.0092 33.0962 52.9325 33.412 54.2996 33.825C55.629 34.2267 56.5232 34.7485 56.9413 35.2387L55.6682 36.3246C55.5607 36.1985 55.0356 35.7959 53.8158 35.4274C52.6336 35.0703 50.8774 34.7696 48.4204 34.7696C45.4051 34.7696 43.3471 35.4289 41.7428 36.0926C41.336 36.2609 40.9576 36.4293 40.5907 36.5926C40.2282 36.754 39.8713 36.9131 39.5268 37.0502C38.8424 37.3227 38.1329 37.5429 37.3818 37.5429C35.8938 37.5429 34.5141 36.6822 33.3183 35.7477C32.7045 35.2681 32.0951 34.7314 31.5075 34.2148C30.9125 33.6917 30.3392 33.1885 29.7703 32.744C29.2821 32.3625 28.4429 31.9367 27.3337 31.5453C26.2387 31.1588 24.9325 30.8236 23.5487 30.5998C20.7538 30.1479 17.7732 30.1704 15.6096 31.0158L15 29.4567Z" fill="#E1E1E1"/>
<path d="M32.1872 56L24.9519 51.1765L27.3636 15L34.5989 19.8235L32.1872 56Z" fill="#878787"/>
</svg>
